<svg width="118" height="34" viewBox="0 0 118 34" fill="none" xmlns="http://www.w3.org/2000/svg">
<path d="M117.038 30.079C117.038 31.8909 115.54 33.3586 113.687 33.3586H4.00963C2.15733 33.3586 0.653809 31.8909 0.653809 30.079V3.92546C0.653809 2.11441 2.15733 0.641602 4.00963 0.641602H113.686C115.54 0.641602 117.038 2.11441 117.038 3.92546L117.038 30.079Z" fill="white"/>
<path d="M113.333 0.681061C115.352 0.681061 116.994 2.28225 116.994 4.25V29.75C116.994 31.7178 115.352 33.3189 113.333 33.3189H4.35897C2.34077 33.3189 0.698525 31.7178 0.698525 29.75V4.25C0.698525 2.28225 2.34077 0.681061 4.35897 0.681061H113.333ZM113.333 0H4.35897C1.96263 0 0 1.91356 0 4.25V29.75C0 32.0864 1.96263 34 4.35897 34H113.333C115.73 34 117.692 32.0864 117.692 29.75V4.25C117.692 1.91356 115.73 0 113.333 0Z" fill="#A6A6A6"/>
<path d="M26.2655 16.8166C26.2402 14.0771 28.5662 12.7443 28.6725 12.6822C27.3552 10.8097 25.3135 10.5538 24.596 10.5334C22.8812 10.3575 21.2178 11.5339 20.3443 11.5339C19.4533 11.5339 18.1081 10.5504 16.6583 10.5793C14.7927 10.6074 13.0473 11.6605 12.0901 13.2959C10.1146 16.6305 11.588 21.5307 13.4806 24.2261C14.4274 25.5461 15.5337 27.02 16.9818 26.9682C18.3984 26.9112 18.9276 26.0876 20.6372 26.0876C22.3311 26.0876 22.828 26.9682 24.3048 26.935C25.8252 26.9112 26.7825 25.609 27.6961 24.2771C28.7902 22.7641 29.2296 21.274 29.247 21.1975C29.2113 21.1856 26.2943 20.1002 26.2655 16.8166Z" fill="black"/>
<path d="M23.4758 8.76032C24.2377 7.83127 24.759 6.56732 24.6143 5.28467C23.5115 5.33227 22.1323 6.02842 21.3381 6.93707C20.6354 7.73777 20.0078 9.05017 20.1699 10.2844C21.4087 10.3745 22.6807 9.67492 23.4758 8.76032Z" fill="black"/>
<path d="M42.7616 8.50789C42.7616 9.50834 42.4538 10.2614 41.8392 10.7672C41.2699 11.2338 40.4609 11.4676 39.413 11.4676C38.8934 11.4676 38.4488 11.4455 38.0765 11.4013V5.93494C38.5621 5.85844 39.0852 5.81934 39.6501 5.81934C40.6483 5.81934 41.4007 6.03099 41.9081 6.45429C42.4765 6.93284 42.7616 7.61709 42.7616 8.50789ZM41.7982 8.53254C41.7982 7.88399 41.6221 7.38674 41.2699 7.03994C40.9177 6.69399 40.4034 6.52059 39.726 6.52059C39.4383 6.52059 39.1933 6.53929 38.9902 6.57839V10.734C39.1026 10.751 39.3084 10.7587 39.6074 10.7587C40.3066 10.7587 40.8462 10.5691 41.2263 10.19C41.6064 9.81094 41.7982 9.25844 41.7982 8.53254Z" fill="black"/>
<path d="M47.8694 9.38149C47.8694 9.99774 47.689 10.5026 47.3281 10.8987C46.9497 11.3059 46.4484 11.509 45.8225 11.509C45.2192 11.509 44.7388 11.3144 44.3805 10.9234C44.0231 10.5332 43.8444 10.0411 43.8444 9.44779C43.8444 8.82729 44.0283 8.31814 44.3979 7.92289C44.7676 7.52764 45.2645 7.32959 45.8905 7.32959C46.4937 7.32959 46.9785 7.52424 47.3455 7.91439C47.6942 8.29349 47.8694 8.78309 47.8694 9.38149ZM46.9218 9.41039C46.9218 9.04064 46.8399 8.72359 46.6768 8.45924C46.485 8.13964 46.2122 7.97984 45.8573 7.97984C45.4903 7.97984 45.2113 8.13964 45.0195 8.45924C44.8556 8.72359 44.7746 9.04574 44.7746 9.42654C44.7746 9.79629 44.8565 10.1133 45.0195 10.3777C45.2174 10.6973 45.4929 10.8571 45.8486 10.8571C46.1973 10.8571 46.4711 10.6947 46.6681 10.3692C46.8372 10.0997 46.9218 9.78014 46.9218 9.41039Z" fill="black"/>
<path d="M54.7183 7.41113L53.4324 11.418H52.5955L52.0628 9.67808C51.9277 9.24373 51.8178 8.81193 51.7324 8.38353H51.7158C51.6365 8.82383 51.5266 9.25478 51.3854 9.67808L50.8196 11.418H49.9731L48.7639 7.41113H49.7028L50.1675 9.31598C50.28 9.76648 50.3724 10.1957 50.4465 10.602H50.463C50.531 10.2671 50.6435 9.84043 50.8022 9.32448L51.3854 7.41198H52.1299L52.6887 9.28368C52.8239 9.74013 52.9337 10.1796 53.0183 10.6029H53.0436C53.1055 10.1906 53.1987 9.75118 53.3225 9.28368L53.8212 7.41198H54.7183V7.41113Z" fill="black"/>
<path d="M59.4547 11.4182H58.541V9.1232C58.541 8.416 58.2655 8.0624 57.7128 8.0624C57.4417 8.0624 57.2229 8.1593 57.0529 8.35395C56.8846 8.5486 56.7992 8.7781 56.7992 9.04075V11.4173H55.8855V8.55625C55.8855 8.20435 55.8742 7.8227 55.8524 7.4096H56.6553L56.6981 8.03605H56.7233C56.8297 7.8414 56.9884 7.68075 57.1967 7.5524C57.4443 7.4028 57.7215 7.32715 58.0249 7.32715C58.4085 7.32715 58.7276 7.44785 58.9813 7.6901C59.2969 7.98675 59.4547 8.4296 59.4547 9.0178V11.4182Z" fill="black"/>
<path d="M61.9742 11.4182H61.0614V5.57275H61.9742V11.4182Z" fill="black"/>
<path d="M67.3532 9.38149C67.3532 9.99774 67.1727 10.5026 66.8118 10.8987C66.4335 11.3059 65.9313 11.509 65.3062 11.509C64.7021 11.509 64.2217 11.3144 63.8643 10.9234C63.5068 10.5332 63.3281 10.0411 63.3281 9.44779C63.3281 8.82729 63.5121 8.31814 63.8817 7.92289C64.2514 7.52764 64.7483 7.32959 65.3734 7.32959C65.9775 7.32959 66.4614 7.52424 66.8292 7.91439C67.178 8.29349 67.3532 8.78309 67.3532 9.38149ZM66.4047 9.41039C66.4047 9.04064 66.3227 8.72359 66.1597 8.45924C65.9688 8.13964 65.695 7.97984 65.3411 7.97984C64.9732 7.97984 64.6942 8.13964 64.5033 8.45924C64.3394 8.72359 64.2583 9.04574 64.2583 9.42654C64.2583 9.79629 64.3403 10.1133 64.5033 10.3777C64.7012 10.6973 64.9767 10.8571 65.3324 10.8571C65.6811 10.8571 65.954 10.6947 66.151 10.3692C66.321 10.0997 66.4047 9.78014 66.4047 9.41039Z" fill="black"/>
<path d="M71.7748 11.4181H70.9545L70.8865 10.9565H70.8612C70.5805 11.3246 70.1803 11.509 69.6607 11.509C69.2728 11.509 68.959 11.3875 68.7227 11.1461C68.5082 10.9268 68.401 10.6539 68.401 10.3301C68.401 9.84049 68.6102 9.46734 69.0313 9.20894C69.4515 8.95054 70.0426 8.82389 70.8037 8.82984V8.75504C70.8037 8.22719 70.5195 7.96369 69.9502 7.96369C69.5448 7.96369 69.1874 8.06314 68.8787 8.26034L68.6931 7.67554C69.0749 7.44519 69.5465 7.32959 70.1027 7.32959C71.1768 7.32959 71.7156 7.88209 71.7156 8.98709V10.4627C71.7156 10.863 71.7356 11.1818 71.7748 11.4181ZM70.8263 10.0411V9.42314C69.8185 9.40614 69.3146 9.67559 69.3146 10.2306C69.3146 10.4397 69.3722 10.5961 69.4899 10.7007C69.6076 10.8052 69.7575 10.8571 69.9362 10.8571C70.1367 10.8571 70.3242 10.795 70.495 10.6718C70.6668 10.5477 70.7723 10.3904 70.8115 10.1975C70.8211 10.1541 70.8263 10.1014 70.8263 10.0411Z" fill="black"/>
<path d="M76.9664 11.4182H76.1556L76.1129 10.7748H76.0876C75.8287 11.2644 75.3876 11.5092 74.7677 11.5092C74.2726 11.5092 73.8602 11.3196 73.5333 10.9405C73.2064 10.5614 73.0433 10.0693 73.0433 9.4649C73.0433 8.81635 73.2203 8.29105 73.576 7.88985C73.9204 7.51585 74.3423 7.32885 74.8445 7.32885C75.3963 7.32885 75.7825 7.5099 76.0022 7.87285H76.0196V5.57275H76.9341V10.3387C76.9341 10.7289 76.9446 11.0884 76.9664 11.4182ZM76.0196 9.7284V9.0603C76.0196 8.9447 76.0109 8.8512 75.9944 8.7798C75.9429 8.5656 75.8322 8.3854 75.6639 8.24005C75.4939 8.0947 75.2891 8.0216 75.0528 8.0216C74.7119 8.0216 74.4452 8.15335 74.249 8.4177C74.0546 8.68205 73.9561 9.0195 73.9561 9.43175C73.9561 9.82785 74.0494 10.1492 74.2368 10.3965C74.4347 10.66 74.7015 10.7918 75.0354 10.7918C75.3353 10.7918 75.575 10.6821 75.7572 10.462C75.9333 10.2588 76.0196 10.014 76.0196 9.7284Z" fill="black"/>
<path d="M84.7803 9.38149C84.7803 9.99774 84.5999 10.5026 84.2389 10.8987C83.8606 11.3059 83.3602 11.509 82.7334 11.509C82.1309 11.509 81.6506 11.3144 81.2914 10.9234C80.934 10.5332 80.7552 10.0411 80.7552 9.44779C80.7552 8.82729 80.9392 8.31814 81.3088 7.92289C81.6785 7.52764 82.1754 7.32959 82.8022 7.32959C83.4046 7.32959 83.8902 7.52424 84.2564 7.91439C84.6051 8.29349 84.7803 8.78309 84.7803 9.38149ZM83.8336 9.41039C83.8336 9.04064 83.7516 8.72359 83.5886 8.45924C83.3959 8.13964 83.1239 7.97984 82.7682 7.97984C82.4021 7.97984 82.1231 8.13964 81.9304 8.45924C81.7665 8.72359 81.6855 9.04574 81.6855 9.42654C81.6855 9.79629 81.7674 10.1133 81.9304 10.3777C82.1283 10.6973 82.4038 10.8571 82.7595 10.8571C83.1082 10.8571 83.3828 10.6947 83.5799 10.3692C83.7481 10.0997 83.8336 9.78014 83.8336 9.41039Z" fill="black"/>
<path d="M89.6929 11.4182H88.7802V9.1232C88.7802 8.416 88.5047 8.0624 87.9511 8.0624C87.68 8.0624 87.4611 8.1593 87.292 8.35395C87.1229 8.5486 87.0383 8.7781 87.0383 9.04075V11.4173H86.1238V8.55625C86.1238 8.20435 86.1133 7.8227 86.0916 7.4096H86.8936L86.9363 8.03605H86.9616C87.0688 7.8414 87.2275 7.68075 87.435 7.5524C87.6834 7.4028 87.9598 7.32715 88.2641 7.32715C88.6468 7.32715 88.9659 7.44785 89.2195 7.6901C89.536 7.98675 89.6929 8.4296 89.6929 9.0178V11.4182Z" fill="black"/>
<path d="M95.8417 8.07872H94.8356V10.0252C94.8356 10.5199 95.0143 10.7673 95.3683 10.7673C95.5322 10.7673 95.6682 10.7537 95.7754 10.7256L95.7989 11.4014C95.6185 11.4677 95.3814 11.5008 95.0893 11.5008C94.7284 11.5008 94.4477 11.3937 94.2445 11.1795C94.0405 10.9653 93.9394 10.6049 93.9394 10.0992V8.07872H93.3387V7.41147H93.9394V6.67707L94.8347 6.41357V7.41062H95.8408V8.07872H95.8417Z" fill="black"/>
<path d="M100.678 11.4182H99.7639V9.1402C99.7639 8.42195 99.4884 8.0624 98.9365 8.0624C98.5128 8.0624 98.2234 8.27065 98.0647 8.68715C98.0377 8.7747 98.022 8.8818 98.022 9.0076V11.4174H97.1093V5.57275H98.022V7.9876H98.0395C98.3272 7.54815 98.7395 7.32885 99.2739 7.32885C99.6523 7.32885 99.9653 7.44955 100.214 7.6918C100.523 7.99355 100.678 8.44235 100.678 9.03565V11.4182Z" fill="black"/>
<path d="M105.668 9.22541C105.668 9.38522 105.655 9.51952 105.634 9.62917H102.894C102.906 10.0253 103.037 10.327 103.29 10.5361C103.522 10.7231 103.821 10.8166 104.187 10.8166C104.593 10.8166 104.962 10.7537 105.295 10.6271L105.438 11.2459C105.049 11.4108 104.59 11.4932 104.059 11.4932C103.423 11.4932 102.921 11.3105 102.559 10.945C102.194 10.5795 102.014 10.089 102.014 9.47362C102.014 8.86927 102.182 8.36607 102.521 7.96487C102.875 7.53647 103.354 7.32227 103.958 7.32227C104.549 7.32227 104.998 7.53647 105.301 7.96487C105.546 8.30487 105.668 8.72562 105.668 9.22541ZM104.796 8.99507C104.803 8.73072 104.743 8.50292 104.619 8.31082C104.46 8.06347 104.219 7.93937 103.892 7.93937C103.594 7.93937 103.35 8.06007 103.165 8.30232C103.013 8.49527 102.923 8.72562 102.894 8.99507H104.796Z" fill="black"/>
<path d="M46.7674 26.7781H44.7875L43.703 23.4555H39.9334L38.9003 26.7781H36.9728L40.7075 15.4663H43.0143L46.7674 26.7781ZM43.3761 22.0615L42.3953 19.1077C42.2916 18.806 42.0972 18.0954 41.8104 16.9768H41.7755C41.6613 17.4579 41.4773 18.1685 41.2245 19.1077L40.2612 22.0615H43.3761Z" fill="black"/>
<path d="M56.3719 22.5996C56.3719 23.9868 55.9875 25.0833 55.2185 25.8882C54.5298 26.6048 53.6746 26.9626 52.6537 26.9626C51.5518 26.9626 50.7602 26.5767 50.2781 25.8049H50.2432V30.1017H48.3845V21.3067C48.3845 20.4346 48.361 19.5396 48.3157 18.6216H49.9503L50.054 19.9144H50.0889C50.7088 18.9403 51.6494 18.4541 52.9118 18.4541C53.8986 18.4541 54.7225 18.8341 55.3816 19.5948C56.0424 20.3564 56.3719 21.3577 56.3719 22.5996ZM54.4784 22.6659C54.4784 21.872 54.2953 21.2175 53.9274 20.7024C53.5255 20.1652 52.9859 19.8966 52.3094 19.8966C51.8508 19.8966 51.4341 20.0462 51.0618 20.3411C50.6887 20.6386 50.4446 21.0271 50.3304 21.5082C50.2729 21.7326 50.2441 21.9162 50.2441 22.0607V23.4207C50.2441 24.014 50.4306 24.5146 50.8038 24.9235C51.1769 25.3323 51.6616 25.5363 52.2579 25.5363C52.958 25.5363 53.5029 25.2728 53.8925 24.7475C54.2831 24.2214 54.4784 23.5278 54.4784 22.6659Z" fill="black"/>
<path d="M65.994 22.5996C65.994 23.9868 65.6095 25.0833 64.8397 25.8882C64.1519 26.6048 63.2967 26.9626 62.2758 26.9626C61.1738 26.9626 60.3822 26.5767 59.901 25.8049H59.8661V30.1017H58.0075V21.3067C58.0075 20.4346 57.9839 19.5396 57.9386 18.6216H59.5732L59.677 19.9144H59.7118C60.3308 18.9403 61.2715 18.4541 62.5347 18.4541C63.5207 18.4541 64.3446 18.8341 65.0054 19.5948C65.6636 20.3564 65.994 21.3577 65.994 22.5996ZM64.1004 22.6659C64.1004 21.872 63.9165 21.2175 63.5486 20.7024C63.1467 20.1652 62.6088 19.8966 61.9314 19.8966C61.472 19.8966 61.0561 20.0462 60.683 20.3411C60.3099 20.6386 60.0666 21.0271 59.9524 21.5082C59.8958 21.7326 59.8661 21.9162 59.8661 22.0607V23.4207C59.8661 24.014 60.0527 24.5146 60.4241 24.9235C60.7972 25.3315 61.2819 25.5363 61.88 25.5363C62.58 25.5363 63.1249 25.2728 63.5146 24.7475C63.9052 24.2214 64.1004 23.5278 64.1004 22.6659Z" fill="black"/>
<path d="M76.7519 23.6061C76.7519 24.5683 76.4092 25.3512 75.7214 25.9555C74.9656 26.616 73.9133 26.9458 72.5611 26.9458C71.3127 26.9458 70.3119 26.7112 69.5543 26.2411L69.985 24.7307C70.801 25.2118 71.6963 25.4532 72.6719 25.4532C73.3719 25.4532 73.9168 25.2985 74.3082 24.9908C74.6979 24.6831 74.8923 24.27 74.8923 23.7549C74.8923 23.2959 74.7319 22.9091 74.4102 22.5955C74.0903 22.2818 73.5559 21.9903 72.8096 21.7208C70.7783 20.9822 69.7636 19.9001 69.7636 18.4772C69.7636 17.5473 70.1192 16.7849 70.8315 16.1916C71.5411 15.5974 72.4879 15.3008 73.6718 15.3008C74.7276 15.3008 75.6046 15.4801 76.3046 15.838L75.84 17.3153C75.1861 16.9685 74.4468 16.7951 73.6195 16.7951C72.9657 16.7951 72.4548 16.9523 72.0886 17.2651C71.7791 17.5448 71.624 17.8856 71.624 18.2894C71.624 18.7365 71.8009 19.1062 72.1566 19.3969C72.4661 19.6655 73.0284 19.9562 73.8444 20.2699C74.8426 20.6617 75.5758 21.1199 76.0475 21.6452C76.5174 22.1688 76.7519 22.8241 76.7519 23.6061Z" fill="black"/>
<path d="M82.8971 19.9817H80.8484V23.9419C80.8484 24.9491 81.2093 25.4523 81.9329 25.4523C82.2651 25.4523 82.5406 25.4243 82.7585 25.3682L82.81 26.7443C82.4438 26.8778 81.9617 26.9449 81.3645 26.9449C80.6305 26.9449 80.0568 26.7265 79.6427 26.2904C79.2304 25.8535 79.0229 25.1208 79.0229 24.0915V19.98H77.8024V18.62H79.0229V17.1266L80.8484 16.5894V18.62H82.8971V19.9817Z" fill="black"/>
<path d="M92.1408 22.6328C92.1408 23.8866 91.7729 24.9159 91.0388 25.7209C90.269 26.5496 89.2473 26.9627 87.9736 26.9627C86.7461 26.9627 85.7688 26.5658 85.04 25.7719C84.3112 24.978 83.9468 23.9758 83.9468 22.768C83.9468 21.504 84.3216 20.4687 85.074 19.6638C85.8246 18.858 86.8376 18.4551 88.1113 18.4551C89.3388 18.4551 90.3266 18.852 91.0719 19.6468C91.7851 20.4177 92.1408 21.4131 92.1408 22.6328ZM90.2124 22.6915C90.2124 21.9392 90.0476 21.2941 89.7137 20.756C89.324 20.1049 88.7669 19.7802 88.0451 19.7802C87.2979 19.7802 86.7304 20.1058 86.3407 20.756C86.0068 21.2949 85.8421 21.9503 85.8421 22.7255C85.8421 23.4777 86.0068 24.1229 86.3407 24.6601C86.7426 25.3112 87.3041 25.6359 88.0285 25.6359C88.7382 25.6359 89.2952 25.3044 89.6971 24.6431C90.0397 24.0948 90.2124 23.4429 90.2124 22.6915Z" fill="black"/>
<path d="M98.1824 20.2153C97.9984 20.1822 97.8022 20.1652 97.5965 20.1652C96.9427 20.1652 96.437 20.4057 96.0813 20.8877C95.7718 21.3127 95.6167 21.8499 95.6167 22.4984V26.7782H93.7588L93.7763 21.1903C93.7763 20.2502 93.7527 19.3942 93.7065 18.6224H95.3255L95.3935 20.183H95.4449C95.6411 19.6467 95.9505 19.2149 96.3742 18.891C96.7883 18.5995 97.2356 18.4541 97.7177 18.4541C97.8894 18.4541 98.0446 18.466 98.1824 18.4873V20.2153Z" fill="black"/>
<path d="M106.495 22.3141C106.495 22.6388 106.473 22.9125 106.427 23.1361H100.851C100.873 23.9419 101.142 24.5581 101.66 24.9831C102.13 25.3631 102.738 25.5535 103.484 25.5535C104.309 25.5535 105.063 25.4251 105.74 25.1676L106.031 26.4256C105.24 26.7622 104.305 26.9296 103.227 26.9296C101.929 26.9296 100.911 26.5573 100.17 25.8136C99.4308 25.0698 99.0603 24.0711 99.0603 22.8182C99.0603 21.5882 99.4047 20.564 100.094 19.7471C100.816 18.875 101.792 18.439 103.019 18.439C104.225 18.439 105.138 18.875 105.757 19.7471C106.248 20.4399 106.495 21.2967 106.495 22.3141ZM104.723 21.8441C104.735 21.3069 104.614 20.8428 104.362 20.4509C104.04 19.9469 103.546 19.6953 102.881 19.6953C102.273 19.6953 101.779 19.9409 101.401 20.4339C101.092 20.8258 100.908 21.2958 100.851 21.8432H104.723V21.8441Z" fill="black"/>
</svg>
