<svg width="24" height="24" viewBox="0 0 24 24" fill="none" xmlns="http://www.w3.org/2000/svg">
<path d="M13.6801 18.0701C13.6801 17.8801 13.7501 17.6901 13.9001 17.5401L19.4401 12.0001L13.9001 6.46012C13.6101 6.17012 13.6101 5.69012 13.9001 5.40012C14.1901 5.11012 14.6701 5.11012 14.9601 5.40012L21.0301 11.4701C21.3201 11.7601 21.3201 12.2401 21.0301 12.5301L14.9601 18.6001C14.6701 18.8901 14.1901 18.8901 13.9001 18.6001C13.7501 18.4601 13.6801 18.2601 13.6801 18.0701Z" fill="white"/>
<path d="M2.74996 12C2.74996 11.59 3.08996 11.25 3.49996 11.25H20.33C20.74 11.25 21.08 11.59 21.08 12C21.08 12.41 20.74 12.75 20.33 12.75H3.49996C3.08996 12.75 2.74996 12.41 2.74996 12Z" fill="white"/>
</svg>
