<svg width="118" height="34" viewBox="0 0 118 34" fill="none" xmlns="http://www.w3.org/2000/svg">
<path d="M113.333 34H4.35897C1.96263 34 0 32.0864 0 29.75V4.25C0 1.91356 1.96263 1.43051e-06 4.35897 1.43051e-06H113.333C115.73 1.43051e-06 117.692 1.91356 117.692 4.25V29.75C117.692 32.0864 115.73 34 113.333 34Z" fill="white"/>
<path d="M113.333 0.681063C115.352 0.681063 116.994 2.28225 116.994 4.25V29.75C116.994 31.7178 115.352 33.3189 113.333 33.3189H4.35897C2.34077 33.3189 0.698525 31.7178 0.698525 29.75V4.25C0.698525 2.28225 2.34077 0.681063 4.35897 0.681063H113.333ZM113.333 1.43051e-06H4.35897C1.96263 1.43051e-06 0 1.91356 0 4.25V29.75C0 32.0864 1.96263 34 4.35897 34H113.333C115.73 34 117.692 32.0864 117.692 29.75V4.25C117.692 1.91356 115.73 1.43051e-06 113.333 1.43051e-06Z" fill="#A6A6A6"/>
<path d="M8.44336 6.40805C8.18727 6.66943 8.03906 7.07637 8.03906 7.60337V26.4011C8.03906 26.9281 8.18727 27.3351 8.44336 27.5964L8.50656 27.6538L19.3103 17.1244V16.8758L8.50656 6.34643L8.44336 6.40805Z" fill="black"/>
<path d="M24.2152 20.6357L20.6179 17.1242V16.8756L24.2195 13.364L24.3002 13.4097L28.5654 15.7759C29.7827 16.4474 29.7827 17.5524 28.5654 18.2281L24.3002 20.5901L24.2152 20.6357Z" fill="black"/>
<path d="M23.6463 21.2439L19.9641 17.6537L9.09717 28.25C9.50146 28.6644 10.1608 28.7144 10.9105 28.3L23.6463 21.2439Z" fill="black"/>
<path d="M23.6463 12.756L10.9105 5.69994C10.1608 5.28982 9.50146 5.33976 9.09717 5.75413L19.9641 16.3462L23.6463 12.756Z" fill="black"/>
<path d="M41.3383 8.7069C41.3383 9.41665 41.1204 9.98509 40.691 10.409C40.1974 10.9116 39.5544 11.1645 38.7665 11.1645C38.0135 11.1645 37.3706 10.9073 36.8431 10.4005C36.3146 9.88627 36.0509 9.25515 36.0509 8.49971C36.0509 7.74427 36.3146 7.11315 36.8431 6.60315C37.3706 6.09209 38.0135 5.83496 38.7665 5.83496C39.1414 5.83496 39.4988 5.9104 39.8399 6.05065C40.1799 6.19196 40.4567 6.38321 40.6572 6.61909L40.2017 7.06746C39.8519 6.66477 39.3757 6.46609 38.7665 6.46609C38.2173 6.46609 37.7411 6.65309 37.3368 7.03027C36.9369 7.40852 36.7363 7.89834 36.7363 8.49971C36.7363 9.10108 36.9369 9.59515 37.3368 9.9734C37.7411 10.3463 38.2173 10.5376 38.7665 10.5376C39.3496 10.5376 39.8399 10.3463 40.2268 9.96915C40.4818 9.71946 40.6267 9.37521 40.6649 8.93533H38.7665V8.32121H41.2991C41.3296 8.45402 41.3383 8.58258 41.3383 8.7069Z" fill="black" stroke="black" stroke-width="0.16" stroke-miterlimit="10"/>
<path d="M45.3562 6.57796H42.9773V8.19296H45.1219V8.80708H42.9773V10.4221H45.3562V11.0479H42.3038V5.95215H45.3562V6.57796Z" fill="black" stroke="black" stroke-width="0.16" stroke-miterlimit="10"/>
<path d="M48.1917 11.0479H47.5182V6.57796H46.0591V5.95215H49.652V6.57796H48.1917V11.0479Z" fill="black" stroke="black" stroke-width="0.16" stroke-miterlimit="10"/>
<path d="M52.2521 11.0479V5.95215H52.9244V11.0479H52.2521Z" fill="black" stroke="black" stroke-width="0.16" stroke-miterlimit="10"/>
<path d="M55.905 11.0479H55.2369V6.57796H53.7723V5.95215H57.3696V6.57796H55.905V11.0479Z" fill="black" stroke="black" stroke-width="0.16" stroke-miterlimit="10"/>
<path d="M64.1718 10.392C63.6563 10.9073 63.0177 11.1645 62.256 11.1645C61.4899 11.1645 60.8513 10.9073 60.3359 10.392C59.8215 9.87777 59.5654 9.24665 59.5654 8.49971C59.5654 7.75277 59.8215 7.12165 60.3359 6.6074C60.8513 6.09209 61.4899 5.83496 62.256 5.83496C63.0134 5.83496 63.652 6.09209 64.1674 6.61165C64.6861 7.13015 64.9422 7.75702 64.9422 8.49971C64.9422 9.24665 64.6861 9.87777 64.1718 10.392ZM60.8339 9.9649C61.2218 10.3463 61.6937 10.5376 62.256 10.5376C62.814 10.5376 63.2902 10.3463 63.6738 9.9649C64.0606 9.58346 64.2568 9.09365 64.2568 8.49971C64.2568 7.90577 64.0606 7.41596 63.6738 7.03452C63.2902 6.65309 62.814 6.46184 62.256 6.46184C61.6937 6.46184 61.2218 6.65309 60.8339 7.03452C60.447 7.41596 60.2509 7.90577 60.2509 8.49971C60.2509 9.09365 60.447 9.58346 60.8339 9.9649Z" fill="black" stroke="black" stroke-width="0.16" stroke-miterlimit="10"/>
<path d="M65.887 11.0479V5.95215H66.7043L69.2456 9.91527H69.275L69.2456 8.93565V5.95215H69.9179V11.0479H69.2161L66.555 6.88927H66.5256L66.555 7.87315V11.0479H65.887Z" fill="black" stroke="black" stroke-width="0.16" stroke-miterlimit="10"/>
<path d="M59.3997 18.4896C57.3521 18.4896 55.6793 20.0089 55.6793 22.1053C55.6793 24.1846 57.3521 25.7199 59.3997 25.7199C61.4517 25.7199 63.1245 24.1846 63.1245 22.1053C63.1245 20.0089 61.4517 18.4896 59.3997 18.4896ZM59.3997 24.2961C58.2762 24.2961 57.3096 23.3919 57.3096 22.1053C57.3096 20.8016 58.2762 19.9133 59.3997 19.9133C60.5232 19.9133 61.4942 20.8016 61.4942 22.1053C61.4942 23.3919 60.5232 24.2961 59.3997 24.2961ZM51.2822 18.4896C49.2302 18.4896 47.5618 20.0089 47.5618 22.1053C47.5618 24.1846 49.2302 25.7199 51.2822 25.7199C53.3331 25.7199 55.0026 24.1846 55.0026 22.1053C55.0026 20.0089 53.3331 18.4896 51.2822 18.4896ZM51.2822 24.2961C50.1576 24.2961 49.1877 23.3919 49.1877 22.1053C49.1877 20.8016 50.1576 19.9133 51.2822 19.9133C52.4057 19.9133 53.3723 20.8016 53.3723 22.1053C53.3723 23.3919 52.4057 24.2961 51.2822 24.2961ZM41.6227 19.5978V21.1341H45.3856C45.2756 21.9926 44.9813 22.6238 44.5302 23.0636C43.9809 23.5949 43.1255 24.1846 41.6227 24.1846C39.307 24.1846 37.4937 22.3624 37.4937 20.1046C37.4937 17.8468 39.307 16.0246 41.6227 16.0246C42.8748 16.0246 43.7859 16.5016 44.4582 17.12L45.5687 16.0373C44.6282 15.1618 43.3772 14.4893 41.6227 14.4893C38.4472 14.4893 35.7784 17.0084 35.7784 20.1046C35.7784 23.2007 38.4472 25.7199 41.6227 25.7199C43.3391 25.7199 44.6282 25.1716 45.6417 24.1431C46.6802 23.1306 47.0039 21.7068 47.0039 20.5572C47.0039 20.2002 46.9734 19.8719 46.9189 19.5978H41.6227ZM81.1216 20.7888C80.8153 19.9803 79.8705 18.4896 77.9461 18.4896C76.039 18.4896 74.4512 19.9548 74.4512 22.1053C74.4512 24.1304 76.0227 25.7199 78.1291 25.7199C79.8324 25.7199 80.8153 24.7073 81.2196 24.1176L79.9555 23.2963C79.5338 23.8977 78.9595 24.2961 78.1291 24.2961C77.3042 24.2961 76.7125 23.9274 76.3332 23.2007L81.2927 21.2L81.1216 20.7888ZM76.0652 21.9926C76.0227 20.5986 77.1756 19.8846 78.0016 19.8846C78.6489 19.8846 79.1982 20.2002 79.3812 20.6518L76.0652 21.9926ZM72.0342 25.4999H73.6645V14.8749H72.0342V25.4999ZM69.3643 19.2949H69.3098C68.9437 18.8721 68.2452 18.4896 67.3603 18.4896C65.5034 18.4896 63.8056 20.0791 63.8056 22.1169C63.8056 24.1431 65.5034 25.7199 67.3603 25.7199C68.2452 25.7199 68.9437 25.3342 69.3098 24.8986H69.3643V25.4171C69.3643 26.7994 68.607 27.5421 67.3854 27.5421C66.3893 27.5421 65.7714 26.8408 65.5164 26.2511L64.0987 26.8281C64.5073 27.7864 65.5895 28.9658 67.3854 28.9658C69.2968 28.9658 70.9096 27.8693 70.9096 25.2014V18.7095H69.3643V19.2949ZM67.4998 24.2961C66.3763 24.2961 65.4358 23.3792 65.4358 22.1169C65.4358 20.843 66.3763 19.9133 67.4998 19.9133C68.607 19.9133 69.4798 20.843 69.4798 22.1169C69.4798 23.3792 68.607 24.2961 67.4998 24.2961ZM88.7541 14.8749H84.855V25.4999H86.4809V21.4741H88.7541C90.5598 21.4741 92.3307 20.2002 92.3307 18.174C92.3307 16.1489 90.5555 14.8749 88.7541 14.8749ZM88.7966 19.9962H86.4809V16.3529H88.7966C90.0106 16.3529 90.7037 17.3357 90.7037 18.174C90.7037 18.9964 90.0106 19.9962 88.7966 19.9962ZM98.8473 18.4694C97.6726 18.4694 96.451 18.9751 95.9486 20.0961L97.3914 20.6858C97.702 20.0961 98.273 19.9048 98.8768 19.9048C99.7202 19.9048 100.576 20.3989 100.589 21.2712V21.3828C100.295 21.217 99.6646 20.9716 98.8898 20.9716C97.3359 20.9716 95.7525 21.8056 95.7525 23.3622C95.7525 24.7859 97.0253 25.7029 98.4561 25.7029C99.5502 25.7029 100.154 25.2216 100.533 24.6616H100.589V25.4829H102.159V21.4072C102.159 19.5234 100.716 18.4694 98.8473 18.4694ZM98.6512 24.2919C98.1194 24.2919 97.3784 24.0348 97.3784 23.3919C97.3784 22.5696 98.3025 22.254 99.1023 22.254C99.8183 22.254 100.154 22.4081 100.589 22.611C100.461 23.5949 99.5927 24.2919 98.6512 24.2919ZM107.88 18.7021L106.011 23.308H105.956L104.024 18.7021H102.27L105.173 25.1387L103.517 28.7204H105.216L109.689 18.7021H107.88ZM93.2243 25.4999H94.8545V14.8749H93.2243V25.4999Z" fill="black"/>
</svg>
