<svg width="44" height="44" viewBox="0 0 44 44" fill="none" xmlns="http://www.w3.org/2000/svg">
<g clip-path="url(#clip0_1074_1488)">
<path d="M33.0938 19.9136L23.3044 19.9131C22.8721 19.9131 22.5217 20.2634 22.5217 20.6957V23.823C22.5217 24.2552 22.8721 24.6056 23.3044 24.6056H28.8171C28.2135 26.1722 27.0868 27.4842 25.6493 28.3178L28 32.387C31.7707 30.2062 34 26.3799 34 22.0965C34 21.4866 33.955 21.0506 33.8651 20.5597C33.7968 20.1867 33.4729 19.9136 33.0938 19.9136Z" fill="#167EE6"/>
<path d="M22 29.3042C19.3022 29.3042 16.947 27.8302 15.6821 25.6489L11.613 27.9943C13.6837 31.5831 17.5628 33.9998 22 33.9998C24.1768 33.9998 26.2307 33.4138 28 32.3924V32.3868L25.6494 28.3176C24.5742 28.9412 23.3299 29.3042 22 29.3042Z" fill="#12B347"/>
<path d="M28 32.3927V32.3871L25.6494 28.3179C24.5741 28.9414 23.33 29.3044 22 29.3044V34.0001C24.1767 34.0001 26.2308 33.414 28 32.3927Z" fill="#0F993E"/>
<path d="M14.6957 21.9998C14.6957 20.67 15.0586 19.4259 15.682 18.3507L11.613 16.0054C10.586 17.7691 10 19.8175 10 21.9998C10 24.1821 10.586 26.2304 11.613 27.9942L15.682 25.6489C15.0586 24.5737 14.6957 23.3296 14.6957 21.9998Z" fill="#FFD500"/>
<path d="M22 14.6957C23.7593 14.6957 25.3753 15.3208 26.6375 16.3606C26.9488 16.6171 27.4014 16.5986 27.6867 16.3134L29.9024 14.0976C30.2261 13.774 30.203 13.2442 29.8573 12.9443C27.7425 11.1097 24.991 10 22 10C17.5628 10 13.6837 12.4167 11.613 16.0056L15.6821 18.3509C16.947 16.1697 19.3022 14.6957 22 14.6957Z" fill="#FF4B26"/>
<path d="M26.6374 16.3606C26.9488 16.6171 27.4015 16.5986 27.6866 16.3134L29.9024 14.0976C30.226 13.774 30.2029 13.2442 29.8573 12.9443C27.7425 11.1096 24.991 10 22 10V14.6957C23.7592 14.6957 25.3752 15.3208 26.6374 16.3606Z" fill="#D93F21"/>
</g>
<rect x="0.5" y="0.5" width="43" height="43" rx="9.5" stroke="#CCCCCC"/>
<defs>
<clipPath id="clip0_1074_1488">
<rect width="24" height="24" fill="white" transform="translate(10 10)"/>
</clipPath>
</defs>
</svg>
