<svg width="133" height="120" viewBox="0 0 133 120" fill="none" xmlns="http://www.w3.org/2000/svg">
<path d="M81.1877 52.5028H51.7036V22.9H81.1877V52.5028ZM54.6769 49.6053H78.2143V25.8844H54.6769V49.6053ZM97.0902 18.8628H85.1969V6.96368H97.0902V18.8628ZM88.1702 15.8687H94.1169V9.8805H88.1702V15.8687ZM97.0902 68.4584H85.1969V56.4531H97.0902V68.4584ZM88.1702 65.4644H94.1169V59.4762H88.1702V65.4644ZM35.964 18.8435V6.96368H47.8574V18.8435H35.964ZM44.7977 15.888V9.89982H38.8511V15.888H44.7977ZM47.7711 68.4778H35.964V56.4531H47.8574V68.4295L47.7711 68.4778ZM44.7977 65.4837V59.4955H38.8511V65.4837H44.7977Z" fill="#fff"/>
<path d="M103.891 25.8844H78.1855V0H91.2299C94.588 0.0152928 97.8038 1.36737 100.176 3.76123C102.548 6.15509 103.883 9.39642 103.891 12.778V25.8844ZM81.2356 22.8903H101.013V12.778C101.016 10.1874 99.9968 7.7017 98.1803 5.86714C96.3639 4.03258 93.8985 2.99921 91.3258 2.99409H81.1877L81.2356 22.8903ZM54.6482 25.8844H28.9431V12.778C28.9482 9.39064 30.2867 6.14346 32.6654 3.74823C35.044 1.35299 38.2687 0.00510916 41.6326 0H54.6482V25.8844ZM31.9932 22.8903H51.7515V2.99409H41.6614C39.1009 3.00159 36.6465 4.02453 34.8297 5.84134C33.0129 7.65815 31.98 10.1225 31.9548 12.7007L31.9932 22.8903ZM78.291 75.3932V49.5087H103.996V62.6152C103.976 65.9978 102.633 69.2362 100.257 71.6282C97.8818 74.0201 94.6659 75.3729 91.3066 75.3932H78.291ZM81.1589 72.3991H91.2299C93.8026 72.4016 96.271 71.3756 98.0929 69.5465C99.9147 67.7174 100.941 65.2347 100.946 62.6441V52.5028H81.2644L81.1589 72.3991ZM54.6482 75.3932H41.6614C38.2975 75.388 35.0728 74.0402 32.6941 71.6449C30.3155 69.2497 28.977 66.0025 28.9719 62.6152V49.586H54.6769L54.6482 75.3932ZM32.022 52.5898V62.7021C32.0194 63.9852 32.2681 65.2562 32.7537 66.4425C33.2393 67.6288 33.9523 68.7071 34.852 69.6158C35.7516 70.5244 36.8203 71.2456 37.997 71.7381C39.1736 72.2306 40.4351 72.4847 41.7093 72.486H51.7803V52.5898H32.022Z" fill="#fff"/>
<path d="M17.0804 107.644L16.8924 108.834C16.8208 109.429 16.7582 110.141 16.7044 110.971C16.6507 111.8 16.606 112.665 16.5702 113.567L16.3285 118.84C16.3285 118.985 16.2389 119.102 16.0599 119.192C15.8988 119.282 15.6571 119.327 15.3348 119.327C14.9051 119.327 14.4575 119.201 13.992 118.948C13.5444 118.696 13.2848 118.444 13.2132 118.191C13.1415 117.957 13.0789 117.407 13.0252 116.542L12.9177 114.892C12.0225 115.523 11.0557 116.046 10.0173 116.46C8.97886 116.857 7.85091 117.055 6.63344 117.055C4.75351 117.055 3.17796 116.379 1.90678 115.027C0.635592 113.675 0 112.034 0 110.105C0 106.878 1.22642 104.174 3.67927 101.992C6.15003 99.8108 8.96096 98.72 12.1121 98.72C13.7055 98.72 14.8872 98.9183 15.6571 99.315C16.4269 99.6936 16.8119 100.433 16.8119 101.533C16.8119 101.947 16.7134 102.272 16.5164 102.506C16.3195 102.74 16.0957 102.858 15.845 102.858C15.7913 102.858 15.4064 102.759 14.6902 102.56C13.992 102.362 13.2042 102.263 12.3269 102.263C9.83825 102.263 7.7972 103.092 6.20374 104.751C4.61028 106.391 3.81355 108.248 3.81355 110.322C3.81355 112.467 4.85199 113.54 6.92885 113.54C7.91357 113.54 8.9162 113.396 9.93673 113.107C10.9752 112.819 11.9509 112.395 12.864 111.836C12.864 110.736 12.8819 109.763 12.9177 108.915C12.9536 108.05 13.3116 107.419 13.992 107.022C14.6723 106.608 15.3527 106.4 16.033 106.4C16.5165 106.4 16.8208 106.5 16.9461 106.698C17.0715 106.878 17.1341 107.031 17.1341 107.158L17.0804 107.644Z" fill="#fff"/>
<path d="M24.6544 104.886L24.7887 105.751C25.3617 104.886 26.0062 104.201 26.7224 103.696C27.4385 103.191 28.28 102.939 29.2468 102.939C29.9809 102.939 30.5807 103.137 31.0462 103.534C31.5296 103.912 31.7713 104.39 31.7713 104.967C31.7713 105.382 31.646 105.715 31.3953 105.968C31.1626 106.202 30.7597 106.319 30.1868 106.319C28.8977 106.319 27.8682 106.563 27.0983 107.049C26.3285 107.518 25.6571 108.266 25.0841 109.294C25.0841 112.846 24.9946 114.946 24.8156 115.595C24.6544 116.226 24.3053 116.632 23.7682 116.812C23.249 116.992 22.8193 117.083 22.4791 117.083C22.0673 117.083 21.745 117.01 21.5123 116.866C21.2974 116.74 21.19 116.497 21.19 116.136C21.19 115.92 21.2079 115.649 21.2437 115.325L21.378 114.135C21.4317 113.648 21.4765 113.062 21.5123 112.377C21.5481 111.692 21.566 110.881 21.566 109.943C21.566 108.068 21.4138 106.635 21.1095 105.643C20.8051 104.634 20.6529 104.066 20.6529 103.939C20.6529 103.615 20.8319 103.326 21.19 103.074C21.5481 102.804 22.0136 102.668 22.5865 102.668C23.3027 102.668 23.7951 102.894 24.0636 103.344C24.3501 103.795 24.547 104.309 24.6544 104.886Z" fill="#fff"/>
<path d="M36.0729 111.917C36.1445 112.548 36.4041 113.08 36.8517 113.513C37.2993 113.927 38.0513 114.135 39.1076 114.135C40.3609 114.135 41.6052 113.855 42.8406 113.296C44.076 112.738 44.7563 112.458 44.8816 112.458C45.0786 112.458 45.2487 112.539 45.3919 112.701C45.5351 112.846 45.6068 113.08 45.6068 113.405C45.6068 114.631 44.9085 115.595 43.512 116.298C42.1155 117.001 40.4862 117.353 38.6242 117.353C36.6548 117.353 35.0971 116.785 33.9512 115.649C32.8233 114.513 32.2593 112.954 32.2593 110.971C32.2593 108.735 33.065 106.824 34.6764 105.237C36.2877 103.633 38.2482 102.831 40.5578 102.831C41.9722 102.831 43.0554 103.146 43.8074 103.777C44.5594 104.408 44.9354 105.319 44.9354 106.509C44.9354 108.131 44.2371 109.393 42.8406 110.295C41.4441 111.196 39.1882 111.737 36.0729 111.917ZM36.0729 109.537C37.8275 109.393 39.1345 109.105 39.9938 108.672C40.8532 108.221 41.2829 107.59 41.2829 106.779C41.2829 106.472 41.1755 106.193 40.9607 105.941C40.7458 105.688 40.3698 105.562 39.8327 105.562C39.027 105.562 38.2482 105.923 37.4962 106.644C36.7443 107.347 36.2698 108.311 36.0729 109.537Z" fill="#fff"/>
<path d="M51.7301 111.917C51.8018 112.548 52.0614 113.08 52.509 113.513C52.9566 113.927 53.7085 114.135 54.7649 114.135C56.0181 114.135 57.2625 113.855 58.4979 113.296C59.7332 112.738 60.4136 112.458 60.5389 112.458C60.7359 112.458 60.9059 112.539 61.0492 112.701C61.1924 112.846 61.264 113.08 61.264 113.405C61.264 114.631 60.5658 115.595 59.1693 116.298C57.7727 117.001 56.1435 117.353 54.2815 117.353C52.312 117.353 50.7544 116.785 49.6085 115.649C48.4806 114.513 47.9166 112.954 47.9166 110.971C47.9166 108.735 48.7223 106.824 50.3336 105.237C51.945 103.633 53.9055 102.831 56.2151 102.831C57.6295 102.831 58.7127 103.146 59.4647 103.777C60.2166 104.408 60.5926 105.319 60.5926 106.509C60.5926 108.131 59.8944 109.393 58.4979 110.295C57.1013 111.196 54.8454 111.737 51.7301 111.917ZM51.7301 109.537C53.4847 109.393 54.7917 109.105 55.6511 108.672C56.5105 108.221 56.9402 107.59 56.9402 106.779C56.9402 106.472 56.8328 106.193 56.6179 105.941C56.4031 105.688 56.0271 105.562 55.49 105.562C54.6843 105.562 53.9055 105.923 53.1535 106.644C52.4015 107.347 51.9271 108.311 51.7301 109.537Z" fill="#fff"/>
<path d="M64.7287 104.697C64.6749 104.372 64.6481 104.147 64.6481 104.021C64.6481 103.552 64.8629 103.2 65.2926 102.966C65.7223 102.713 66.1968 102.587 66.716 102.587C67.4143 102.587 67.8798 102.912 68.1125 103.561C68.3632 104.21 68.5243 105.454 68.5959 107.293C69.4553 105.941 70.3863 104.904 71.389 104.183C72.3916 103.444 73.439 103.074 74.5311 103.074C75.6949 103.074 76.6706 103.588 77.4584 104.615C78.2641 105.643 78.6669 106.932 78.6669 108.483C78.6669 109.691 78.5864 111.106 78.4252 112.729C78.2641 114.351 78.1835 115.307 78.1835 115.595V115.866C78.1835 116.388 78.0403 116.767 77.7538 117.001C77.4674 117.236 77.0914 117.353 76.6259 117.353C76.0529 117.353 75.5606 117.209 75.1488 116.92C74.737 116.632 74.5311 116.253 74.5311 115.784C74.5311 115.081 74.6027 114.18 74.746 113.08C74.9071 111.98 74.9877 110.754 74.9877 109.402C74.9877 108.393 74.8892 107.671 74.6922 107.239C74.4953 106.806 74.0746 106.59 73.43 106.59C72.8034 106.59 72.0424 106.932 71.1472 107.617C70.252 108.302 69.4106 109.186 68.6228 110.268C68.6228 112.954 68.5243 114.793 68.3274 115.784C68.1483 116.758 67.3516 117.245 65.9372 117.245C65.5254 117.245 65.2121 117.155 64.9972 116.974C64.8003 116.812 64.7018 116.587 64.7018 116.298L64.7287 116.136C64.7287 116.01 64.7466 115.748 64.7824 115.352C64.8361 114.937 64.8808 114.45 64.9166 113.891L65.0241 112.079C65.0599 111.448 65.0778 110.826 65.0778 110.213C65.0778 109.33 65.0599 108.51 65.0241 107.753C64.9883 106.977 64.9256 106.247 64.8361 105.562L64.7287 104.697Z" fill="#fff"/>
<path d="M91.3753 98.7471C92.6107 98.8913 94.222 99.0085 96.2094 99.0986C98.2146 99.1707 99.9155 99.2068 101.312 99.2068C101.706 99.2068 102.127 99.1978 102.574 99.1798L103.863 99.1257C104.275 99.1257 104.633 99.1167 104.938 99.0986C105.26 99.0806 105.493 99.0716 105.636 99.0716C105.869 99.0716 106.083 99.1437 106.28 99.2879C106.495 99.4322 106.603 99.6665 106.603 99.9911C106.603 100.316 106.495 100.721 106.28 101.208C106.066 101.695 105.779 102.046 105.421 102.263C105.081 102.461 103.81 102.578 101.607 102.614L100.077 102.641C99.9871 103.849 99.9155 105.021 99.8618 106.157C99.8081 107.293 99.7812 108.411 99.7812 109.51C99.7812 110.917 99.8081 112.197 99.8618 113.351C99.9155 114.486 99.9961 115.442 100.103 116.217C100.103 116.451 99.9513 116.677 99.6469 116.893C99.3605 117.11 98.9845 117.218 98.519 117.218C97.7491 117.218 97.212 117.101 96.9076 116.866C96.6032 116.632 96.3526 116.307 96.1556 115.893C95.9766 115.478 95.8871 114.495 95.8871 112.945C95.8871 112.152 95.905 111.313 95.9408 110.43C95.9766 109.528 96.0214 108.627 96.0751 107.725L96.2362 105.048L96.3974 102.587L94.1146 102.479C93.3447 102.479 92.6286 102.47 91.9661 102.452C91.232 102.452 90.677 102.209 90.301 101.722C89.943 101.235 89.7639 100.685 89.7639 100.072C89.7639 99.6034 89.8982 99.2609 90.1668 99.0445C90.4353 98.8282 90.7486 98.72 91.1067 98.72L91.3753 98.7471Z" fill="#fff"/>
<path d="M112.415 112.323C112.415 113.693 112.639 114.414 113.087 114.486C113.552 114.558 113.785 114.82 113.785 115.271C113.785 115.685 113.561 116.109 113.114 116.542C112.666 116.974 112.165 117.191 111.61 117.191C110.625 117.191 109.9 116.821 109.434 116.082C108.969 115.325 108.736 114.135 108.736 112.512C108.736 111.214 108.799 109.862 108.924 108.456C109.05 107.031 109.166 105.778 109.273 104.697C109.399 103.615 110.133 103.074 111.476 103.074C111.941 103.074 112.353 103.182 112.711 103.399C113.069 103.615 113.248 103.957 113.248 104.426C113.248 104.606 113.105 105.607 112.818 107.428C112.55 109.249 112.415 110.881 112.415 112.323ZM111.1 100.775C110.473 100.775 110.007 100.568 109.703 100.153C109.399 99.7206 109.246 99.2068 109.246 98.6119C109.246 98.053 109.515 97.5752 110.052 97.1786C110.607 96.7819 111.18 96.5836 111.771 96.5836C112.272 96.5836 112.774 96.7639 113.275 97.1245C113.794 97.485 114.054 97.9628 114.054 98.5578C114.054 99.2609 113.785 99.8108 113.248 100.207C112.711 100.586 111.995 100.775 111.1 100.775Z" fill="#fff"/>
<path d="M123.821 115.595C123.821 115.992 123.669 116.352 123.364 116.677C123.06 116.983 122.63 117.137 122.075 117.137C120.661 117.137 119.667 116.686 119.094 115.784C118.539 114.883 118.262 113.45 118.262 111.485C118.262 110.475 118.288 109.456 118.342 108.429C118.414 107.401 118.503 106.391 118.611 105.4L118.906 102.587L119.121 100.343C119.157 100 119.175 99.8018 119.175 99.7477V99.4772C119.175 99.2068 119.157 98.9905 119.121 98.8282C119.103 98.6479 119.094 98.4947 119.094 98.3685C119.094 97.8817 119.318 97.4941 119.765 97.2056C120.231 96.9171 120.75 96.7729 121.323 96.7729C121.771 96.7729 122.182 96.9352 122.558 97.2597C122.934 97.5662 123.122 98.053 123.122 98.72C123.122 99.2068 122.934 100.947 122.558 103.939C122.182 106.932 121.994 109.276 121.994 110.971C121.994 113.044 122.147 114.225 122.451 114.513C122.755 114.784 123.06 114.955 123.364 115.027C123.669 115.099 123.821 115.289 123.821 115.595Z" fill="#fff"/>
<path d="M133 115.595C133 115.992 132.848 116.352 132.543 116.677C132.239 116.983 131.809 117.137 131.254 117.137C129.84 117.137 128.846 116.686 128.273 115.784C127.718 114.883 127.441 113.45 127.441 111.485C127.441 110.475 127.468 109.456 127.521 108.429C127.593 107.401 127.683 106.391 127.79 105.4L128.085 102.587L128.3 100.343C128.336 100 128.354 99.8018 128.354 99.7477V99.4772C128.354 99.2068 128.336 98.9905 128.3 98.8282C128.282 98.6479 128.273 98.4947 128.273 98.3685C128.273 97.8817 128.497 97.4941 128.945 97.2056C129.41 96.9171 129.929 96.7729 130.502 96.7729C130.95 96.7729 131.362 96.9352 131.738 97.2597C132.114 97.5662 132.302 98.053 132.302 98.72C132.302 99.2068 132.114 100.947 131.738 103.939C131.362 106.932 131.174 109.276 131.174 110.971C131.174 113.044 131.326 114.225 131.63 114.513C131.935 114.784 132.239 114.955 132.543 115.027C132.848 115.099 133 115.289 133 115.595Z" fill="#fff"/>
</svg>
