<svg width="44" height="44" viewBox="0 0 44 44" fill="none" xmlns="http://www.w3.org/2000/svg">
<path d="M17.5475 31.7508C26.6042 31.7508 31.5578 24.2474 31.5578 17.7405C31.5578 17.5274 31.5578 17.3152 31.5434 17.104C32.507 16.407 33.3389 15.5439 34 14.5552C33.1014 14.9536 32.148 15.2148 31.1718 15.33C32.1998 14.7146 32.9692 13.7467 33.3366 12.6064C32.3701 13.18 31.3126 13.5843 30.2099 13.8016C29.4675 13.0122 28.4856 12.4895 27.4162 12.3143C26.3468 12.1392 25.2494 12.3214 24.294 12.8327C23.3385 13.344 22.5782 14.156 22.1307 15.143C21.6833 16.13 21.5735 17.2369 21.8186 18.2925C19.8609 18.1943 17.9458 17.6856 16.1975 16.7992C14.4492 15.9129 12.9068 14.6689 11.6704 13.1479C11.0407 14.2319 10.8479 15.5151 11.1311 16.7363C11.4143 17.9575 12.1523 19.0248 13.1949 19.721C12.4112 19.698 11.6446 19.4866 10.96 19.1047V19.1671C10.9603 20.3039 11.3539 21.4057 12.0739 22.2854C12.7939 23.1652 13.7961 23.7689 14.9104 23.994C14.1855 24.1917 13.4249 24.2206 12.687 24.0784C13.0018 25.0568 13.6144 25.9123 14.4392 26.5254C15.264 27.1385 16.2598 27.4785 17.2874 27.498C16.2664 28.3004 15.0973 28.8938 13.8469 29.244C12.5964 29.5942 11.2892 29.6944 10 29.5389C12.2518 30.9839 14.8719 31.7504 17.5475 31.7469" fill="#1DA1F2"/>
<rect x="0.5" y="0.5" width="43" height="43" rx="9.5" stroke="#CCCCCC"/>
</svg>
